<?xml version="1.0" encoding="UTF-8"?>
<svg version="1.1" xmlns="http://www.w3.org/2000/svg" width="190" height="196">
<path d="M0 0 C0.9698584 -0.00990967 1.9397168 -0.01981934 2.93896484 -0.0300293 C9.23891695 0.04477793 14.41640559 1.08578032 20.25 3.4375 C21.07371094 3.74171875 21.89742188 4.0459375 22.74609375 4.359375 C32.15538231 8.37299507 40.7247598 14.50878636 47.25 22.4375 C47.25 23.0975 47.25 23.7575 47.25 24.4375 C47.91 24.4375 48.57 24.4375 49.25 24.4375 C50.37752649 26.66541998 51.50208139 28.89475887 52.625 31.125 C52.94210938 31.75083984 53.25921875 32.37667969 53.5859375 33.02148438 C59.56931846 44.9259194 62.68906743 58.16292949 60.25 71.4375 C60.13527344 72.17871094 60.02054688 72.91992188 59.90234375 73.68359375 C58.09266715 83.54018181 53.84801294 92.25917262 47.80078125 100.18359375 C45.81072575 103.07594141 44.25 105.87197853 44.25 109.4375 C43.59 109.4375 42.93 109.4375 42.25 109.4375 C40.27080652 125.27605336 40.27080652 125.27605336 43.25 140.4375 C43.72722192 141.96733712 44.16153263 143.51093062 44.5625 145.0625 C44.76488281 145.81789062 44.96726562 146.57328125 45.17578125 147.3515625 C45.25 149.4375 45.25 149.4375 43.98046875 151.2109375 C42.25 152.4375 42.25 152.4375 39.25 152.4375 C38.239375 152.746875 37.22875 153.05625 36.1875 153.375 C32.34805748 154.54317081 28.57540647 154.8421988 24.58203125 155.09375 C22.25500632 155.31129046 22.25500632 155.31129046 20.37890625 156.3828125 C17.45763523 157.83004769 14.58005248 158.23653919 11.375 158.8125 C4.80341757 160.02810903 -1.4504975 161.73662031 -7.82421875 163.765625 C-10.67795833 164.42095639 -12.0558188 164.46010892 -14.75 163.4375 C-14.75 164.0975 -14.75 164.7575 -14.75 165.4375 C-15.41 165.4375 -16.07 165.4375 -16.75 165.4375 C-16.75 164.7775 -16.75 164.1175 -16.75 163.4375 C-17.74 163.4375 -18.73 163.4375 -19.75 163.4375 C-21.39828357 156.95425128 -22.12510561 150.7417603 -22.50390625 144.0625 C-22.46128488 141.51354249 -22.46128488 141.51354249 -23.75 140.4375 C-25.53940972 140.33841217 -27.33285508 140.30779621 -29.125 140.3125 C-30.10210937 140.30992187 -31.07921875 140.30734375 -32.0859375 140.3046875 C-34.85464416 140.32315965 -34.85464416 140.32315965 -37.75 141.4375 C-42.22778121 141.8321519 -46.38625905 141.87273647 -50.6875 140.5 C-53.84542087 137.34207913 -54.8666688 133.7607958 -55.75 129.4375 C-55.75 127.10416667 -55.75 124.77083333 -55.75 122.4375 C-56.245 121.963125 -56.74 121.48875 -57.25 121 C-59.19497993 118.97397924 -58.95195096 118.00531571 -58.9375 115.25 C-58.875625 113.991875 -58.81375 112.73375 -58.75 111.4375 C-59.41 111.4375 -60.07 111.4375 -60.75 111.4375 C-60.42 108.1375 -60.09 104.8375 -59.75 101.4375 C-60.471875 101.355 -61.19375 101.2725 -61.9375 101.1875 C-65.4903575 100.24007133 -67.2911437 99.18563351 -69.75 96.4375 C-70.26988852 90.19883771 -66.72630142 85.56295825 -63.5390625 80.40234375 C-60.34242489 75.10485915 -58.09787947 70.69933054 -57.75 64.4375 C-58.07355469 63.80585937 -58.39710937 63.17421875 -58.73046875 62.5234375 C-59.93399773 60.06104487 -59.95503861 58.40881276 -59.875 55.6875 C-59.85695313 54.88828125 -59.83890625 54.0890625 -59.8203125 53.265625 C-59.79710937 52.66234375 -59.77390625 52.0590625 -59.75 51.4375 C-59.09 51.4375 -58.43 51.4375 -57.75 51.4375 C-58.059375 50.633125 -58.059375 50.633125 -58.375 49.8125 C-58.90013028 46.48667488 -57.95810811 44.60159267 -56.75 41.4375 C-56.03983799 39.47982907 -55.33162976 37.52144868 -54.625 35.5625 C-54.00078415 33.85387998 -53.37604585 32.14545034 -52.75 30.4375 C-52.09 30.4375 -51.43 30.4375 -50.75 30.4375 C-50.63527344 29.85484375 -50.52054688 29.2721875 -50.40234375 28.671875 C-49.70175938 26.27226865 -48.76807405 24.70889067 -47.3125 22.6875 C-46.66474609 21.76710938 -46.66474609 21.76710938 -46.00390625 20.828125 C-45.59011719 20.36921875 -45.17632812 19.9103125 -44.75 19.4375 C-44.09 19.4375 -43.43 19.4375 -42.75 19.4375 C-42.52957031 18.86128906 -42.30914062 18.28507812 -42.08203125 17.69140625 C-40.33669774 14.73815865 -38.23732986 13.34132165 -35.4375 11.375 C-34.49261719 10.70339844 -33.54773438 10.03179687 -32.57421875 9.33984375 C-22.03881943 2.24338528 -12.56714896 0.0671772 0 0 Z M-24.625 29.25 C-25.38554688 29.75144531 -26.14609375 30.25289062 -26.9296875 30.76953125 C-28.97193011 32.64085656 -29.38636011 33.73366145 -29.75 36.4375 C-30.41 36.4375 -31.07 36.4375 -31.75 36.4375 C-35.46477456 42.15945113 -34.64718375 50.87995903 -33.75 57.4375 C-31.56362768 63.94838816 -27.75075226 68.15789295 -21.875 71.59765625 C-16.94137778 73.54752532 -11.84303834 73.55755572 -6.6015625 73.53515625 C-5.94417084 73.5337413 -5.28677917 73.53232635 -4.60946655 73.53086853 C-2.53126269 73.52531762 -0.45317073 73.51277465 1.625 73.5 C3.04296718 73.49497864 4.46093607 73.49041685 5.87890625 73.48632812 C9.33597322 73.47536437 12.79297567 73.45813421 16.25 73.4375 C16.518125 74.06398437 16.78625 74.69046875 17.0625 75.3359375 C18.76998401 78.35773486 21.1575193 79.02011301 24.25 80.4375 C24.91 81.0975 25.57 81.7575 26.25 82.4375 C28.13307443 80.55442557 27.61503069 77.22358313 27.7734375 74.6640625 C28.33859506 72.02357228 29.2980566 71.2224322 31.25 69.4375 C31.25 68.7775 31.25 68.1175 31.25 67.4375 C32.24 67.1075 33.23 66.7775 34.25 66.4375 C38.68859313 62.68090733 40.83230992 57.35305945 41.64453125 51.68359375 C41.94286151 43.73916936 40.01451283 38.47172139 34.6875 32.625 C33.883125 31.903125 33.07875 31.18125 32.25 30.4375 C31.79625 29.880625 31.3425 29.32375 30.875 28.75 C26.26085536 25.02319087 19.805151 25.14965935 14.15625 25.20703125 C13.40589478 25.20748947 12.65553955 25.20794769 11.88244629 25.2084198 C10.30589198 25.21142262 8.72934012 25.21924929 7.15283203 25.23168945 C4.75672744 25.24994873 2.36101074 25.25219868 -0.03515625 25.25195312 C-1.57552413 25.25686966 -3.11588943 25.26269857 -4.65625 25.26953125 C-5.3637439 25.27064407 -6.07123779 25.2717569 -6.8001709 25.27290344 C-13.3437709 25.33451349 -19.11668657 25.48566816 -24.625 29.25 Z " fill="#33369F" transform="translate(109.75,14.5625)"/>
<path d="M0 0 C0.9698584 -0.00990967 1.9397168 -0.01981934 2.93896484 -0.0300293 C9.23891695 0.04477793 14.41640559 1.08578032 20.25 3.4375 C21.07371094 3.74171875 21.89742188 4.0459375 22.74609375 4.359375 C32.15538231 8.37299507 40.7247598 14.50878636 47.25 22.4375 C47.25 23.0975 47.25 23.7575 47.25 24.4375 C47.91 24.4375 48.57 24.4375 49.25 24.4375 C50.24 26.7475 51.23 29.0575 52.25 31.4375 C50.765 31.9325 50.765 31.9325 49.25 32.4375 C49.25 31.7775 49.25 31.1175 49.25 30.4375 C46.25007271 31.72894978 46.25007271 31.72894978 43.25 33.4375 C41.78165458 37.84253626 43.00143756 40.71666893 44.5 45.0625 C45.73161174 49.73199198 44.42313286 53.35953011 42.87890625 57.82421875 C42.1770333 60.74069704 42.46027309 62.57280436 43.25 65.4375 C41.5484375 65.994375 41.5484375 65.994375 39.8125 66.5625 C37.8685869 67.30387873 37.8685869 67.30387873 36.25 68.4375 C35.19250443 71.52119887 35.19250443 71.52119887 35.25 74.4375 C33.3125 74.0625 33.3125 74.0625 31.25 73.4375 C30.92 72.7775 30.59 72.1175 30.25 71.4375 C29.59 71.1075 28.93 70.7775 28.25 70.4375 C29.24 70.1075 30.23 69.7775 31.25 69.4375 C31.25 68.7775 31.25 68.1175 31.25 67.4375 C33.125 65.3125 33.125 65.3125 35.25 63.4375 C35.91 63.4375 36.57 63.4375 37.25 63.4375 C37.37375 62.880625 37.4975 62.32375 37.625 61.75 C38.25 59.4375 38.25 59.4375 39.265625 57.125 C41.13827692 52.01236301 41.15032246 46.32339847 39.52734375 41.12109375 C36.67627142 35.0380366 32.36213053 30.34803835 26.25 27.4375 C21.4032078 26.57422062 16.72992543 26.30909154 11.8125 26.3046875 C11.12873291 26.30373077 10.44496582 26.30277405 9.74047852 26.30178833 C8.30517484 26.30111254 6.86986799 26.30292456 5.43457031 26.30712891 C3.25578858 26.31248577 1.07721294 26.30716342 -1.1015625 26.30078125 C-2.50520878 26.30144214 -3.90885494 26.30272352 -5.3125 26.3046875 C-7.20162109 26.30637939 -7.20162109 26.30637939 -9.12890625 26.30810547 C-14.56009956 26.50218128 -19.42756373 26.74983083 -24.0625 29.75 C-24.71863281 30.15863281 -25.37476562 30.56726563 -26.05078125 30.98828125 C-27.97362539 32.62822418 -28.77890286 34.12559869 -29.75 36.4375 C-30.41 36.1075 -31.07 35.7775 -31.75 35.4375 C-30.9375 32 -30.9375 32 -29.75 28.4375 C-28.76 28.1075 -27.77 27.7775 -26.75 27.4375 C-28.07 27.1075 -29.39 26.7775 -30.75 26.4375 C-31.08 27.0975 -31.41 27.7575 -31.75 28.4375 C-32.74 28.1075 -33.73 27.7775 -34.75 27.4375 C-35.74 27.7675 -36.73 28.0975 -37.75 28.4375 C-38.08 27.1175 -38.41 25.7975 -38.75 24.4375 C-40.173125 25.4275 -40.173125 25.4275 -41.625 26.4375 C-44.75 28.4375 -44.75 28.4375 -46.75 28.4375 C-47.08 29.4275 -47.41 30.4175 -47.75 31.4375 C-48.08 30.4475 -48.41 29.4575 -48.75 28.4375 C-49.41 28.7675 -50.07 29.0975 -50.75 29.4375 C-49.38312778 25.45078937 -47.59804907 22.55255367 -44.75 19.4375 C-44.09 19.4375 -43.43 19.4375 -42.75 19.4375 C-42.52957031 18.86128906 -42.30914062 18.28507812 -42.08203125 17.69140625 C-40.33669774 14.73815865 -38.23732986 13.34132165 -35.4375 11.375 C-34.49261719 10.70339844 -33.54773438 10.03179687 -32.57421875 9.33984375 C-22.03881943 2.24338528 -12.56714896 0.0671772 0 0 Z " fill="#4F50BF" transform="translate(109.75,14.5625)"/>
<path d="M0 0 C8.5504401 1.54927699 16.64557118 9.49392029 22 16 C22 16.66 22 17.32 22 18 C22.66 18 23.32 18 24 18 C25.485 21.465 25.485 21.465 27 25 C26.01 25.33 25.02 25.66 24 26 C24 25.34 24 24.68 24 24 C21.00007271 25.29144978 21.00007271 25.29144978 18 27 C16.53165458 31.40503626 17.75143756 34.27916893 19.25 38.625 C20.48161174 43.29449198 19.17313286 46.92203011 17.62890625 51.38671875 C16.9270333 54.30319704 17.21027309 56.13530436 18 59 C16.865625 59.37125 15.73125 59.7425 14.5625 60.125 C12.6185869 60.86637873 12.6185869 60.86637873 11 62 C9.94250443 65.08369887 9.94250443 65.08369887 10 68 C8.0625 67.625 8.0625 67.625 6 67 C5.67 66.34 5.34 65.68 5 65 C4.34 64.67 3.68 64.34 3 64 C4.485 63.505 4.485 63.505 6 63 C6 62.34 6 61.68 6 61 C7.875 58.875 7.875 58.875 10 57 C10.66 57 11.32 57 12 57 C12.12375 56.443125 12.2475 55.88625 12.375 55.3125 C13 53 13 53 14.015625 50.6875 C15.88827692 45.57486301 15.90032246 39.88589847 14.27734375 34.68359375 C11.33450561 28.40474476 7.02217149 24.36121199 1 21 C-0.44114361 20.11004005 -1.87844322 19.21383498 -3.3125 18.3125 C-4.00988281 17.87550781 -4.70726562 17.43851563 -5.42578125 16.98828125 C-5.94527344 16.66214844 -6.46476563 16.33601563 -7 16 C-6.34 14.68 -5.68 13.36 -5 12 C-4.21625 12.185625 -3.4325 12.37125 -2.625 12.5625 C-0.02910225 13.25962266 -0.02910225 13.25962266 2 12 C2 12.99 2 13.98 2 15 C4.11181389 14.1891646 4.11181389 14.1891646 4.875 12.3125 C5.07346163 8.64095993 3.25637932 6.75779694 1 4 C0.01 4 -0.98 4 -2 4 C-1.34 2.68 -0.68 1.36 0 0 Z " fill="#6B64D7" transform="translate(135,21)"/>
<path d="M0 0 C3.69911155 0.6279887 6.10104208 2.26656902 9.125 4.4375 C9.99382812 5.05496094 10.86265625 5.67242188 11.7578125 6.30859375 C14 8 14 8 16 10 C15.625 13.125 15.625 13.125 15 16 C14.01 16 13.02 16 12 16 C12 16.99 12 17.98 12 19 C12.66 19 13.32 19 14 19 C13.125 22.875 13.125 22.875 12 24 C7.23502341 24.43317969 4.89548225 23.68973774 1 21 C-0.43436931 20.09916245 -1.87205995 19.20359824 -3.3125 18.3125 C-4.54194398 17.54210904 -5.77120566 16.77142672 -7 16 C-6.34 14.68 -5.68 13.36 -5 12 C-4.21625 12.185625 -3.4325 12.37125 -2.625 12.5625 C-0.02910225 13.25962266 -0.02910225 13.25962266 2 12 C2 12.99 2 13.98 2 15 C4.11181389 14.1891646 4.11181389 14.1891646 4.875 12.3125 C5.07346163 8.64095993 3.25637932 6.75779694 1 4 C0.01 4 -0.98 4 -2 4 C-1.34 2.68 -0.68 1.36 0 0 Z " fill="#6661D0" transform="translate(135,21)"/>
<path d="M0 0 C4.91825469 5.6208625 6.50564486 13.13206718 7.75 20.3125 C7.94275513 21.42334961 7.94275513 21.42334961 8.1394043 22.55664062 C9.60640349 31.78638504 8.21348984 39.99847467 6 49 C5.34 48.67 4.68 48.34 4 48 C2.515 48.495 2.515 48.495 1 49 C0.67 48.34 0.34 47.68 0 47 C0.66 46.01 1.32 45.02 2 44 C2.36268934 41.65076222 2.50277147 39.33218085 2.65625 36.9609375 C2.7696875 36.31382813 2.883125 35.66671875 3 35 C3.99 34.505 3.99 34.505 5 34 C5.02712066 32.56260487 5.04645067 31.12506137 5.0625 29.6875 C5.07410156 28.88699219 5.08570313 28.08648437 5.09765625 27.26171875 C5.09657855 24.83138666 5.09657855 24.83138666 4 22 C2.35 22 0.7 22 -1 22 C-1.20140476 18.37471432 -0.85776765 16.13498292 1 13 C0.34 13 -0.32 13 -1 13 C-1 12.34 -1 11.68 -1 11 C-0.34 11 0.32 11 1 11 C1.33 9.68 1.66 8.36 2 7 C1.01 7.33 0.02 7.66 -1 8 C-1.125 2.25 -1.125 2.25 0 0 Z " fill="#716AD0" transform="translate(162,46)"/>
<path d="M0 0 C0.99 0.33 1.98 0.66 3 1 C0.8257161 8.10356106 -1.88853552 13.80206166 -6.4140625 19.7109375 C-8.42569312 22.61442405 -10 25.41148432 -10 29 C-10.66 29 -11.32 29 -12 29 C-12.33 29.99 -12.66 30.98 -13 32 C-13.99 31.67 -14.98 31.34 -16 31 C-16 30.34 -16 29.68 -16 29 C-15.34 29 -14.68 29 -14 29 C-14.33 28.01 -14.66 27.02 -15 26 C-14.10358739 23.60956636 -13.3773334 22.27950623 -11.3125 20.75 C-9.6162782 18.48837093 -9.9643105 17.56416423 -10.3125 14.8125 C-10.6528125 12.9253125 -10.6528125 12.9253125 -11 11 C-10.401875 10.938125 -9.80375 10.87625 -9.1875 10.8125 C-5.50259438 9.44382077 -4.54133062 6.1463472 -2.9375 2.75 C-2 1 -2 1 0 0 Z " fill="#5756BA" transform="translate(164,95)"/>
<path d="M0 0 C2.04119788 1.61594832 4.04072937 3.2856382 6 5 C6 5.66 6 6.32 6 7 C6.66 7 7.32 7 8 7 C8.99 9.31 9.98 11.62 11 14 C10.01 14.33 9.02 14.66 8 15 C7.01 13.02 6.02 11.04 5 9 C4.071875 10.485 4.071875 10.485 3.125 12 C2.42375 12.99 1.7225 13.98 1 15 C0.34 15 -0.32 15 -1 15 C-1 17.97 -1 20.94 -1 24 C-2.34296402 21.98555397 -3.67618973 19.96458448 -5 17.9375 C-6.84649262 15.02914697 -6.84649262 15.02914697 -9 13 C-8.030625 12.731875 -7.06125 12.46375 -6.0625 12.1875 C-5.051875 11.795625 -4.04125 11.40375 -3 11 C-2.67 10.01 -2.34 9.02 -2 8 C-2.66 8 -3.32 8 -4 8 C-4 7.01 -4 6.02 -4 5 C-3.01 5 -2.02 5 -1 5 C-1.33 4.01 -1.66 3.02 -2 2 C-1.34 2 -0.68 2 0 2 C0 1.34 0 0.68 0 0 Z " fill="#736ED1" transform="translate(151,32)"/>
<path d="M0 0 C1.9375 0.8125 1.9375 0.8125 4.9375 2.8125 C4.9375 3.8025 4.9375 4.7925 4.9375 5.8125 C5.5975 5.8125 6.2575 5.8125 6.9375 5.8125 C6.9375 7.1325 6.9375 8.4525 6.9375 9.8125 C4.26246035 12.48753965 1.71364906 13.62369255 -2.0625 13.8125 C-4.3125 12.6875 -4.3125 12.6875 -6.0625 10.8125 C-7.14242835 7.48964354 -7.1821437 6.17143109 -6.0625 2.8125 C-2.87852374 -0.26168398 -2.87852374 -0.26168398 0 0 Z " fill="#37369F" transform="translate(94.0625,57.1875)"/>
<path d="M0 0 C2.75608807 1.65365284 4.19700858 3.39049547 5.875 6.125 C5.8125 8.8125 5.8125 8.8125 4.875 11.125 C1.2308226 13.5544516 -0.83741272 13.28679575 -5.125 13.125 C-5.125 12.465 -5.125 11.805 -5.125 11.125 C-5.785 11.125 -6.445 11.125 -7.125 11.125 C-8 8.4375 -8 8.4375 -8.125 5.125 C-3.63161376 0.21362434 -3.63161376 0.21362434 0 0 Z " fill="#4849B3" transform="translate(133.125,56.875)"/>
<path d="M0 0 C2.375 1.25 2.375 1.25 4.375 3.25 C4.625 6.75 4.625 6.75 4.375 10.25 C2.375 12.25 2.375 12.25 0.4296875 12.4453125 C-1.58854167 12.38020833 -3.60677083 12.31510417 -5.625 12.25 C-6.615 9.28 -7.605 6.31 -8.625 3.25 C-7.965 3.25 -7.305 3.25 -6.625 3.25 C-6.625 2.59 -6.625 1.93 -6.625 1.25 C-4.00244032 -0.49837312 -3.10272901 -0.886494 0 0 Z " fill="#4546B2" transform="translate(114.625,57.75)"/>
<path d="M0 0 C1.0625 1.8125 1.0625 1.8125 2 4 C1.67 4.99 1.34 5.98 1 7 C1.99 7.33 2.98 7.66 4 8 C3.67 8.66 3.34 9.32 3 10 C2.34 10 1.68 10 1 10 C1 10.66 1 11.32 1 12 C3.32383747 13.16191874 5.45093524 13.51446385 8 14 C9.33542939 14.32483418 10.66961551 14.6550855 12 15 C11.67 16.65 11.34 18.3 11 20 C7.26513121 20.5745952 3.78706732 21 0 21 C-0.36644578 19.44033408 -0.71760862 17.87707349 -1.0625 16.3125 C-1.25972656 15.44238281 -1.45695312 14.57226562 -1.66015625 13.67578125 C-2.02442557 10.80768374 -1.69710442 8.78841768 -1 6 C-0.66055205 4.00102872 -0.32578384 2.00124361 0 0 Z " fill="#1B1D72" transform="translate(91,156)"/>
<path d="M0 0 C0.99 0.66 1.98 1.32 3 2 C3.29296875 4.1640625 3.29296875 4.1640625 3.1875 6.625 C3.16042969 7.44226563 3.13335937 8.25953125 3.10546875 9.1015625 C3.07066406 9.72804687 3.03585938 10.35453125 3 11 C3.99 11 4.98 11 6 11 C6 10.34 6 9.68 6 9 C6.99 8.67 7.98 8.34 9 8 C9 10.64 9 13.28 9 16 C10.65 16.33 12.3 16.66 14 17 C14 17.33 14 17.66 14 18 C8.28106364 18.19063121 4.97666325 18.20493574 0.3125 14.75 C-1.62013629 12.17315161 -1.81517948 10.20355564 -2 7 C-1.0625 3.125 -1.0625 3.125 0 0 Z " fill="#1B1D76" transform="translate(56,136)"/>
<path d="M0 0 C0.33333333 1.33333333 0.66666667 2.66666667 1 4 C1.22558594 4.63292969 1.45117188 5.26585938 1.68359375 5.91796875 C2 8 2 8 1.0390625 9.81640625 C0.57242188 10.39261719 0.10578125 10.96882813 -0.375 11.5625 C-2.19394974 13.84380847 -3.05350883 15.16052648 -4 18 C-4.99 18 -5.98 18 -7 18 C-7 18.99 -7 19.98 -7 21 C-7.66 21 -8.32 21 -9 21 C-8.01 23.31 -7.02 25.62 -6 28 C-9.875 26.125 -9.875 26.125 -11 25 C-11 18.63568556 -8.07479663 14.28493668 -4.7890625 8.96484375 C-3.02533776 6.04198986 -1.48760154 3.07103017 0 0 Z " fill="#4E5195" transform="translate(51,86)"/>
<path d="M0 0 C1.125 1.6875 1.125 1.6875 2 4 C1.125 6.75 1.125 6.75 0 9 C-0.66 8.67 -1.32 8.34 -2 8 C-3.99748748 8.5134015 -3.99748748 8.5134015 -6.1875 9.375 C-10.16441284 10.78429436 -13.8119193 11.5544595 -18 12 C-18.33 10.35 -18.66 8.7 -19 7 C-14.98230389 5.2626179 -12.49267064 4.74040511 -8.125 5.5 C-5.34184847 5.94530424 -2.80906487 6.08261955 0 6 C-0.185625 5.195625 -0.37125 4.39125 -0.5625 3.5625 C-0.706875 2.716875 -0.85125 1.87125 -1 1 C-0.67 0.67 -0.34 0.34 0 0 Z " fill="#595BA7" transform="translate(153,158)"/>
<path d="M0 0 C10.23 0.33 20.46 0.66 31 1 C31.66 2.32 32.32 3.64 33 5 C31.68 6.65 30.36 8.3 29 10 C27 9 27 9 26 7 C25.01 6.67 24.02 6.34 23 6 C22.67 5.01 22.34 4.02 22 3 C14.74 2.67 7.48 2.34 0 2 C0 1.34 0 0.68 0 0 Z " fill="#888AD5" transform="translate(95,87)"/>
<path d="M0 0 C0.99 0.33 1.98 0.66 3 1 C2.43120907 2.75478052 1.84429344 4.50369158 1.25 6.25 C0.76273438 7.71179688 0.76273438 7.71179688 0.265625 9.203125 C-1.08057897 12.17806959 -2.56904617 13.85504074 -5 16 C-6.1875 13.3125 -6.1875 13.3125 -7 10 C-5.75 7.375 -5.75 7.375 -4 5 C-3.649375 4.2575 -3.29875 3.515 -2.9375 2.75 C-2 1 -2 1 0 0 Z " fill="#5C5CC3" transform="translate(164,95)"/>
<path d="M0 0 C1.5625 1.6875 1.5625 1.6875 3 4 C2.6875 6.75 2.6875 6.75 2 9 C0.02 9.66 -1.96 10.32 -4 11 C-4.33 12.98 -4.66 14.96 -5 17 C-6.9375 16.625 -6.9375 16.625 -9 16 C-9.33 15.34 -9.66 14.68 -10 14 C-10.66 13.67 -11.32 13.34 -12 13 C-11.01 12.67 -10.02 12.34 -9 12 C-9 11.34 -9 10.68 -9 10 C-6.55400767 7.11722332 -4.78611227 5.54087318 -1 5 C-0.67 3.35 -0.34 1.7 0 0 Z " fill="#7070C6" transform="translate(150,72)"/>
<path d="M0 0 C0.99 0 1.98 0 3 0 C3 0.66 3 1.32 3 2 C3.66 2 4.32 2 5 2 C4.125 6.75 4.125 6.75 3 9 C4.65 9.33 6.3 9.66 8 10 C8 10.66 8 11.32 8 12 C4.6875 12.3125 4.6875 12.3125 1 12 C-1 9.875 -1 9.875 -2 7 C-1.58333333 1.58333333 -1.58333333 1.58333333 0 0 Z " fill="#1C207B" transform="translate(44,103)"/>
<path d="M0 0 C0.845625 0.4125 1.69125 0.825 2.5625 1.25 C-0.36660944 3.20273962 -2.51882291 4.00396363 -5.875 4.9375 C-6.82246094 5.20949219 -7.76992187 5.48148438 -8.74609375 5.76171875 C-11.42668237 6.24803744 -12.90037583 6.14369149 -15.4375 5.25 C-15.4375 5.91 -15.4375 6.57 -15.4375 7.25 C-16.0975 7.25 -16.7575 7.25 -17.4375 7.25 C-17.4375 6.59 -17.4375 5.93 -17.4375 5.25 C-18.4275 5.25 -19.4175 5.25 -20.4375 5.25 C-20.7675 3.93 -21.0975 2.61 -21.4375 1.25 C-20.7775 0.92 -20.1175 0.59 -19.4375 0.25 C-19.4375 1.57 -19.4375 2.89 -19.4375 4.25 C-14.66729727 4.03366428 -10.79367134 3.75525872 -6.75 1.0625 C-3.4375 -0.75 -3.4375 -0.75 0 0 Z " fill="#606091" transform="translate(110.4375,172.75)"/>
<path d="M0 0 C0.78375 0.185625 1.5675 0.37125 2.375 0.5625 C4.97089775 1.25962266 4.97089775 1.25962266 7 0 C7 0.99 7 1.98 7 3 C7.99 3.33 8.98 3.66 10 4 C10 5.32 10 6.64 10 8 C4.70558305 8.50423019 2.18586481 7.18923033 -2 4 C-1.34 2.68 -0.68 1.36 0 0 Z " fill="#5B59CB" transform="translate(130,33)"/>
<path d="M0 0 C1.11375 0.2475 1.11375 0.2475 2.25 0.5 C1.59 1.16 0.93 1.82 0.25 2.5 C-0.44937532 3.81647119 -1.11729133 5.15022151 -1.75 6.5 C-2.08 7.16 -2.41 7.82 -2.75 8.5 C-4.07 8.83 -5.39 9.16 -6.75 9.5 C-7.74 6.86 -8.73 4.22 -9.75 1.5 C-6.14587713 -0.90274858 -4.18520139 -0.76094571 0 0 Z " fill="#373CAB" transform="translate(81.75,41.5)"/>
<path d="M0 0 C0.33 0 0.66 0 1 0 C1 3.63 1 7.26 1 11 C0.01 11.33 -0.98 11.66 -2 12 C-2.33 12.66 -2.66 13.32 -3 14 C-4.32 13.67 -5.64 13.34 -7 13 C-7 12.01 -7 11.02 -7 10 C-7.99 10 -8.98 10 -10 10 C-10 9.34 -10 8.68 -10 8 C-9.34 7.67 -8.68 7.34 -8 7 C-7.67 6.34 -7.34 5.68 -7 5 C-5.02 6.32 -3.04 7.64 -1 9 C-0.67 6.03 -0.34 3.06 0 0 Z M-8 14 C-7.34 14 -6.68 14 -6 14 C-6.33 14.99 -6.66 15.98 -7 17 C-7.33 16.01 -7.66 15.02 -8 14 Z " fill="#4344B6" transform="translate(137,87)"/>
<path d="M0 0 C0.99 1.32 1.98 2.64 3 4 C-1.625 8 -1.625 8 -5 8 C-5.99 9.485 -5.99 9.485 -7 11 C-7.99 11 -8.98 11 -10 11 C-9.67 9.68 -9.34 8.36 -9 7 C-8.34 7 -7.68 7 -7 7 C-6.773125 6.21625 -6.54625 5.4325 -6.3125 4.625 C-5 2 -5 2 -2.375 0.6875 C-1.59125 0.460625 -0.8075 0.23375 0 0 Z " fill="#4548B0" transform="translate(79,24)"/>
<path d="M0 0 C1.875 0.3125 1.875 0.3125 4 1 C6.88350516 5.32525774 6.44255823 9.67656929 5.5 14.625 C5.335 15.40875 5.17 16.1925 5 17 C4.96227087 18.9996441 4.95350094 21.00054061 5 23 C2.32415102 18.59779685 2.57419185 14.11738233 2.34375 9.09375 C2.01775999 6.15983993 1.42335015 4.52529866 0 2 C0 1.34 0 0.68 0 0 Z " fill="#353E84" transform="translate(85,150)"/>
<path d="M0 0 C2.98704569 0.49784095 4.39324263 1.26216175 7 3 C7 3.99 7 4.98 7 6 C7.66 6 8.32 6 9 6 C9 7.32 9 8.64 9 10 C6.49515403 12.41847197 5.53986194 13 2 13 C2.875 6.125 2.875 6.125 4 5 C3.01 4.67 2.02 4.34 1 4 C1 3.34 1 2.68 1 2 C0.34 1.67 -0.32 1.34 -1 1 C-0.67 0.67 -0.34 0.34 0 0 Z " fill="#6161B4" transform="translate(92,57)"/>
<path d="M0 0 C0.66 0.33 1.32 0.66 2 1 C2.35919668 2.66128463 2.68911632 4.32900023 3 6 C3.37125 6.721875 3.7425 7.44375 4.125 8.1875 C4.41375 8.785625 4.7025 9.38375 5 10 C4.67 10.66 4.34 11.32 4 12 C3.960008 13.99960012 3.95653201 16.00047242 4 18 C3.01 18 2.02 18 1 18 C-0.2077558 14.37673261 0.45688872 13.35853631 2 10 C0.35 9.67 -1.3 9.34 -3 9 C-2.01 6.03 -1.02 3.06 0 0 Z " fill="#1C1E6D" transform="translate(52,116)"/>
<path d="M0 0 C0.66 0.33 1.32 0.66 2 1 C2.08333357 5.8333472 1.95261487 10.23692563 1 15 C0.34 14.67 -0.32 14.34 -1 14 C-1.99 14.33 -2.98 14.66 -4 15 C-4.33 14.34 -4.66 13.68 -5 13 C-4.34 12.01 -3.68 11.02 -3 10 C-2.63731066 7.65076222 -2.49722853 5.33218085 -2.34375 2.9609375 C-2.2303125 2.31382813 -2.116875 1.66671875 -2 1 C-1.34 0.67 -0.68 0.34 0 0 Z " fill="#6561C7" transform="translate(167,80)"/>
<path d="M0 0 C0.66 0 1.32 0 2 0 C2 3.3 2 6.6 2 10 C2.99 10 3.98 10 5 10 C7.09230769 14.43076923 7.09230769 14.43076923 6.625 17.3125 C6.41875 17.869375 6.2125 18.42625 6 19 C5.34 18.67 4.68 18.34 4 18 C3.34 18.66 2.68 19.32 2 20 C2.04125 18.9275 2.0825 17.855 2.125 16.75 C2.27470473 13.19250718 2.27470473 13.19250718 1 11.0625 C-0.18636549 8.61562118 -0.20443635 6.95083603 -0.125 4.25 C-0.10695312 3.45078125 -0.08890625 2.6515625 -0.0703125 1.828125 C-0.04710937 1.22484375 -0.02390625 0.6215625 0 0 Z " fill="#7173B0" transform="translate(50,66)"/>
<path d="M0 0 C0.33 0 0.66 0 1 0 C1.01417969 0.97839844 1.02835937 1.95679688 1.04296875 2.96484375 C1.33729206 11.05475733 2.07523958 17.2943299 7 24 C3.62129741 22.81288828 1.26914448 21.80530155 -1 19 C-1.24439779 16.06431703 -1.32770891 13.36372625 -1.25 10.4375 C-1.24484375 9.65697266 -1.2396875 8.87644531 -1.234375 8.07226562 C-1.15482198 2.30964397 -1.15482198 2.30964397 0 0 Z " fill="#7D7EBB" transform="translate(75,57)"/>
<path d="M0 0 C1.11375 0.556875 1.11375 0.556875 2.25 1.125 C0.25 2.125 0.25 2.125 -2.75 2.125 C-2.729375 3.218125 -2.70875 4.31125 -2.6875 5.4375 C-2.75 9.125 -2.75 9.125 -3.75 12.125 C-4.74 11.795 -5.73 11.465 -6.75 11.125 C-7.48046875 9.27734375 -7.48046875 9.27734375 -7.9375 7.0625 C-8.09605469 6.32902344 -8.25460938 5.59554687 -8.41796875 4.83984375 C-8.52753906 4.27394531 -8.63710937 3.70804688 -8.75 3.125 C-8.09 3.125 -7.43 3.125 -6.75 3.125 C-6.75 2.465 -6.75 1.805 -6.75 1.125 C-4.02098495 -0.69434337 -3.21400584 -1.02263822 0 0 Z " fill="#6162B9" transform="translate(114.75,57.875)"/>
<path d="M0 0 C6.35335655 -0.34654672 11.09483339 0.69855674 17 3 C18.010625 3.391875 19.02125 3.78375 20.0625 4.1875 C20.701875 4.455625 21.34125 4.72375 22 5 C22 5.33 22 5.66 22 6 C19 7 16 8 13 9 C13.33 7.68 13.66 6.36 14 5 C13.32453125 4.89042969 12.6490625 4.78085937 11.953125 4.66796875 C11.06109375 4.50941406 10.1690625 4.35085937 9.25 4.1875 C8.36828125 4.03667969 7.4865625 3.88585937 6.578125 3.73046875 C3.8089089 2.94585752 2.1740599 1.85404641 0 0 Z " fill="#7F7BCD" transform="translate(113,15)"/>
<path d="M0 0 C0.99 0.66 1.98 1.32 3 2 C3.51171875 5.2578125 3.51171875 5.2578125 3.6875 9.125 C3.75324219 10.40632812 3.81898437 11.68765625 3.88671875 13.0078125 C3.92410156 13.99523437 3.96148437 14.98265625 4 16 C2 16 2 16 0.4375 14.875 C-1.59029559 12.23004924 -1.80849822 10.31936414 -2 7 C-1.0625 3.125 -1.0625 3.125 0 0 Z " fill="#3F427D" transform="translate(56,136)"/>
<path d="M0 0 C0.99 0.33 1.98 0.66 3 1 C4.13672994 4.41018982 3.85110129 5.16728404 2.6875 8.4375 C2.42324219 9.19933594 2.15898437 9.96117188 1.88671875 10.74609375 C-0.42208301 16.614722 -0.42208301 16.614722 -4 19 C-3.55696808 16.41564713 -3.06814809 14.1533332 -2 11.75 C-0.60186858 7.90513861 -0.33600655 4.05860543 0 0 Z " fill="#7974CB" transform="translate(151,60)"/>
<path d="M0 0 C1.32 0 2.64 0 4 0 C3.67 1.65 3.34 3.3 3 5 C2.01 5 1.02 5 0 5 C0 5.99 0 6.98 0 8 C0.66 8 1.32 8 2 8 C1.125 11.875 1.125 11.875 0 13 C-1.66617115 13.04063832 -3.33388095 13.042721 -5 13 C-5 12.34 -5 11.68 -5 11 C-3.68 10.67 -2.36 10.34 -1 10 C-1.350625 9.236875 -1.70125 8.47375 -2.0625 7.6875 C-3 5 -3 5 -2 2 C-1.34 2.33 -0.68 2.66 0 3 C0 2.01 0 1.02 0 0 Z " fill="#635DCD" transform="translate(147,32)"/>
<path d="M0 0 C0.77325823 2.8526081 1.24932259 5.62459763 1.5625 8.5625 C1.64628906 9.32691406 1.73007813 10.09132813 1.81640625 10.87890625 C2.02233337 13.2580217 2 15.61358192 2 18 C0.35 18.33 -1.3 18.66 -3 19 C-3 18.34 -3 17.68 -3 17 C-2.34 17 -1.68 17 -1 17 C-1.33 16.01 -1.66 15.02 -2 14 C-2.06937062 11.77181559 -2.08457084 9.54165476 -2.0625 7.3125 C-2.05347656 6.13300781 -2.04445312 4.95351562 -2.03515625 3.73828125 C-2.02355469 2.83464844 -2.01195312 1.93101563 -2 1 C-1.34 0.67 -0.68 0.34 0 0 Z " fill="#4949B6" transform="translate(140,85)"/>
<path d="M0 0 C2.63095814 4.28558416 2.07220104 8.15278058 1.875 13.02734375 C2.00531469 16.12639004 2.68604889 18.21298651 4 21 C3.01 21 2.02 21 1 21 C0.67 20.01 0.34 19.02 0 18 C-0.66 18.99 -1.32 19.98 -2 21 C-2.625 18.625 -2.625 18.625 -3 16 C-2.34 15.34 -1.68 14.68 -1 14 C-0.69940057 11.63490639 -0.50484988 9.25558119 -0.375 6.875 C-0.30023438 5.59367188 -0.22546875 4.31234375 -0.1484375 2.9921875 C-0.09945312 2.00476563 -0.05046875 1.01734375 0 0 Z " fill="#8C8ED1" transform="translate(149,134)"/>
<path d="M0 0 C1.5625 1.1875 1.5625 1.1875 3 3 C2.875 5.5625 2.875 5.5625 2 8 C-1.6441774 10.4294516 -3.71241272 10.16179575 -8 10 C-8 9.34 -8 8.68 -8 8 C-8.66 8 -9.32 8 -10 8 C-10.33 6.02 -10.66 4.04 -11 2 C-10.34 1.67 -9.68 1.34 -9 1 C-8.67 2.98 -8.34 4.96 -8 7 C-5.03 7 -2.06 7 1 7 C0.67 4.69 0.34 2.38 0 0 Z " fill="#807FC4" transform="translate(136,60)"/>
<path d="M0 0 C0.12375 0.639375 0.2475 1.27875 0.375 1.9375 C0.58125 2.618125 0.7875 3.29875 1 4 C1.66 4.33 2.32 4.66 3 5 C-3.27 5 -9.54 5 -16 5 C-12.3350733 2.55671553 -10.30956914 3 -6 3 C-5.34 2.34 -4.68 1.68 -4 1 C-2 0 -2 0 0 0 Z " fill="#5351CB" transform="translate(127,33)"/>
<path d="M0 0 C4.39584798 6.59377197 2.89641641 14.49768417 2 22 C1.67 22 1.34 22 1 22 C0.63360077 19.64717188 0.28169841 17.29359364 -0.0625 14.9375 C-0.2181543 13.95233398 -0.2181543 13.95233398 -0.37695312 12.94726562 C-1.0387065 8.314992 -0.8450091 4.54413983 0 0 Z " fill="#7E7BCC" transform="translate(168,64)"/>
<path d="M0 0 C0.66 0.33 1.32 0.66 2 1 C1.2884375 1.6496875 1.2884375 1.6496875 0.5625 2.3125 C-1.23686957 4.02309613 -1.23686957 4.02309613 -2 7 C-1.34 7.33 -0.68 7.66 0 8 C-1.28965176 9.37562854 -2.62689293 10.70766393 -4 12 C-4.66 12 -5.32 12 -6 12 C-6 11.34 -6 10.68 -6 10 C-6.66 9.67 -7.32 9.34 -8 9 C-7.34 8.01 -6.68 7.02 -6 6 C-5.34 6 -4.68 6 -4 6 C-3.71125 5.38125 -3.4225 4.7625 -3.125 4.125 C-2 2 -2 2 0 0 Z " fill="#5E61B1" transform="translate(71,28)"/>
<path d="M0 0 C0.33 0 0.66 0 1 0 C1 1.98 1 3.96 1 6 C1.66 6.33 2.32 6.66 3 7 C2.01 8.485 2.01 8.485 1 10 C1.66 10.33 2.32 10.66 3 11 C3 11.66 3 12.32 3 13 C2.01 13.33 1.02 13.66 0 14 C-1.6875 12.0625 -1.6875 12.0625 -3 9 C-2.36683492 5.84472733 -1.25608516 2.95663123 0 0 Z " fill="#242889" transform="translate(54,81)"/>
<path d="M0 0 C1.8125 0.8125 1.8125 0.8125 2.8125 2.8125 C2.20671747 4.83177511 1.54330266 6.83503397 0.8125 8.8125 C0.1525 8.4825 -0.5075 8.1525 -1.1875 7.8125 C-1.1875 7.1525 -1.1875 6.4925 -1.1875 5.8125 C-1.8475 5.8125 -2.5075 5.8125 -3.1875 5.8125 C-3.5175 5.1525 -3.8475 4.4925 -4.1875 3.8125 C-4.8475 3.4825 -5.5075 3.1525 -6.1875 2.8125 C-2.77144161 -0.23755214 -2.77144161 -0.23755214 0 0 Z " fill="#4E4EC4" transform="translate(133.1875,57.1875)"/>
<path d="M0 0 C0.99 0 1.98 0 3 0 C3 0.66 3 1.32 3 2 C3.99 1.67 4.98 1.34 6 1 C5.67 1.99 5.34 2.98 5 4 C3.66666667 4.33333333 2.33333333 4.66666667 1 5 C0.67 5.99 0.34 6.98 0 8 C-0.33 7.01 -0.66 6.02 -1 5 C-1.99 5.495 -1.99 5.495 -3 6 C-1.125 1.125 -1.125 1.125 0 0 Z M6 0 C8 1 8 1 8 1 Z " fill="#4D51AC" transform="translate(62,38)"/>
<path d="M0 0 C0.33 0 0.66 0 1 0 C1 4.95 1 9.9 1 15 C-0.32 15.33 -1.64 15.66 -3 16 C-3.66 15.34 -4.32 14.68 -5 14 C-4.34 13.01 -3.68 12.02 -3 11 C-2.01 11 -1.02 11 0 11 C0 7.37 0 3.74 0 0 Z " fill="#3F40A2" transform="translate(138,87)"/>
<path d="M0 0 C1.5625 1.6875 1.5625 1.6875 3 4 C2.6875 6.75 2.6875 6.75 2 9 C0.02 9.33 -1.96 9.66 -4 10 C-4.33 9.34 -4.66 8.68 -5 8 C-3 6 -3 6 -1 5 C-0.34444881 2.47266765 -0.34444881 2.47266765 0 0 Z " fill="#5754C3" transform="translate(150,72)"/>
<path d="M0 0 C0.99 0.33 1.98 0.66 3 1 C2.6875 2.9375 2.6875 2.9375 2 5 C-1.47325181 6.1577506 -4.36067448 6.06866652 -8 6 C-7.34 5.67 -6.68 5.34 -6 5 C-6 4.34 -6 3.68 -6 3 C-5.195625 2.87625 -4.39125 2.7525 -3.5625 2.625 C-2.716875 2.41875 -1.87125 2.2125 -1 2 C-0.67 1.34 -0.34 0.68 0 0 Z " fill="#5657A5" transform="translate(129,166)"/>
<path d="M0 0 C0.33 0.66 0.66 1.32 1 2 C1.99 2 2.98 2 4 2 C4 2.66 4 3.32 4 4 C4.66 4.33 5.32 4.66 6 5 C1.03926578 6.32286246 -3.91111512 6.08893197 -9 6 C-9 5.67 -9 5.34 -9 5 C-6.36 5 -3.72 5 -1 5 C-1.33 4.01 -1.66 3.02 -2 2 C-1.34 2 -0.68 2 0 2 C0 1.34 0 0.68 0 0 Z " fill="#1C1E71" transform="translate(81,147)"/>
<path d="M0 0 C1.051875 0.639375 2.10375 1.27875 3.1875 1.9375 C6.10828412 3.61754452 8.6171743 4.58996052 12 5 C11.01 6.485 11.01 6.485 10 8 C10 7.34 10 6.68 10 6 C7.98177083 6.09765625 5.96354167 6.1953125 3.9453125 6.29296875 C3.30335937 6.19628906 2.66140625 6.09960938 2 6 C0 3 0 3 0 0 Z " fill="#6A6CB1" transform="translate(83,82)"/>
<path d="M0 0 C0.33 0 0.66 0 1 0 C1 3.63 1 7.26 1 11 C-4 11 -4 11 -6.3125 9 C-6.869375 8.34 -7.42625 7.68 -8 7 C-7.67 6.34 -7.34 5.68 -7 5 C-4.03 6.98 -4.03 6.98 -1 9 C-0.67 6.03 -0.34 3.06 0 0 Z " fill="#B3B3DA" transform="translate(137,87)"/>
<path d="M0 0 C0.66 0.66 1.32 1.32 2 2 C1.68404492 3.67004829 1.34820041 5.33637583 1 7 C1.37722015 9.72502965 1.37722015 9.72502965 2 12 C1.01 12.33 0.02 12.66 -1 13 C-1.02686553 11.02090602 -1.04633375 9.04171029 -1.0625 7.0625 C-1.07410156 5.96035156 -1.08570313 4.85820313 -1.09765625 3.72265625 C-1 1 -1 1 0 0 Z " fill="#2A2F96" transform="translate(54,63)"/>
<path d="M0 0 C-0.55429688 0.31453125 -1.10859375 0.6290625 -1.6796875 0.953125 C-2.76636719 1.59507813 -2.76636719 1.59507813 -3.875 2.25 C-4.95394531 2.87648437 -4.95394531 2.87648437 -6.0546875 3.515625 C-8.20874162 5.15928076 -8.99140585 6.51567335 -10 9 C-10.66 8.67 -11.32 8.34 -12 8 C-11.34 5.69 -10.68 3.38 -10 1 C-8.66666667 0.66666667 -7.33333333 0.33333333 -6 0 C-5.29875 -0.20625 -4.5975 -0.4125 -3.875 -0.625 C-2 -1 -2 -1 0 0 Z " fill="#6B6EB6" transform="translate(90,42)"/>
<path d="M0 0 C0.99 0 1.98 0 3 0 C2.1875 2.9375 2.1875 2.9375 1 6 C0.01 6.33 -0.98 6.66 -2 7 C-2.66 6.34 -3.32 5.68 -4 5 C-3.67 4.01 -3.34 3.02 -3 2 C-2.34 2 -1.68 2 -1 2 C-0.67 1.34 -0.34 0.68 0 0 Z " fill="#5959B5" transform="translate(149,128)"/>
<path d="M0 0 C0.99 0.33 1.98 0.66 3 1 C1.68 4.63 0.36 8.26 -1 12 C-1.33 12 -1.66 12 -2 12 C-2 9.69 -2 7.38 -2 5 C-1.34 5 -0.68 5 0 5 C0 3.35 0 1.7 0 0 Z " fill="#7572C5" transform="translate(164,95)"/>
<path d="M0 0 C0.33 0.66 0.66 1.32 1 2 C0.79375 2.61875 0.5875 3.2375 0.375 3.875 C-0.27096034 6.13516236 -0.27096034 6.13516236 1.4375 8.25 C1.953125 8.8275 2.46875 9.405 3 10 C2.67 10.66 2.34 11.32 2 12 C-0.65841995 10.37064584 -1.83222128 9.51624223 -2.8125 6.5 C-3 4 -3 4 -2 1 C-1.34 0.67 -0.68 0.34 0 0 Z " fill="#7B7CB8" transform="translate(90,59)"/>
<path d="M0 0 C0.66 0 1.32 0 2 0 C2.125 2.875 2.125 2.875 2 6 C1.34 6.66 0.68 7.32 0 8 C-0.99 7.67 -1.98 7.34 -3 7 C-1.125 1.125 -1.125 1.125 0 0 Z " fill="#686AB6" transform="translate(117,62)"/>
<path d="M0 0 C3 1 3 1 5 4 C3.02 4.66 1.04 5.32 -1 6 C-1 5.01 -1 4.02 -1 3 C-1.66 2.67 -2.32 2.34 -3 2 C-2.01 1.34 -1.02 0.68 0 0 Z " fill="#5B5CBB" transform="translate(85,19)"/>
<path d="M0 0 C5.98993047 -0.3152595 9.63560356 0.31780178 15 3 C11.15895151 4.38277746 7.93690746 3.84362303 4 3 C1.5625 1.4375 1.5625 1.4375 0 0 Z " fill="#7976C2" transform="translate(113,15)"/>
<path d="M0 0 C3.87132028 0.57352893 6.08172796 2.48704352 9 5 C5.37 4.67 1.74 4.34 -2 4 C-1.34 2.68 -0.68 1.36 0 0 Z " fill="#716CCB" transform="translate(135,21)"/>
<path d="M0 0 C0 0.66 0 1.32 0 2 C-2.64738916 3.4606285 -3.89448334 4 -7 4 C-6.625 2.0625 -6.625 2.0625 -6 0 C-3.50907189 -1.24546405 -2.58919267 -0.7767578 0 0 Z " fill="#1F217D" transform="translate(117,170)"/>
<path d="M0 0 C0.99 0 1.98 0 3 0 C3 4.62 3 9.24 3 14 C1.18751015 10.3750203 0.68111085 8.62740416 0.375 4.75 C0.30023438 3.85796875 0.22546875 2.9659375 0.1484375 2.046875 C0.09945312 1.37140625 0.05046875 0.6959375 0 0 Z " fill="#9298C4" transform="translate(87,159)"/>
<path d="M0 0 C2.475 0.495 2.475 0.495 5 1 C4.814375 1.9075 4.62875 2.815 4.4375 3.75 C4.04265379 6.68314324 4.05308428 8.2644657 5 11 C4.01 10.34 3.02 9.68 2 9 C1.59156077 6.28796348 1.86663133 3.7562858 2 1 C1.34 0.67 0.68 0.34 0 0 Z " fill="#8889B9" transform="translate(49,125)"/>
<path d="M0 0 C0.99 0 1.98 0 3 0 C3.33 1.65 3.66 3.3 4 5 C2.35 5.33 0.7 5.66 -1 6 C-1.33 5.01 -1.66 4.02 -2 3 C-1.34 2.01 -0.68 1.02 0 0 Z " fill="#3C44A7" transform="translate(112,64)"/>
<path d="M0 0 C0 1.32 0 2.64 0 4 C-2.875 4.1875 -2.875 4.1875 -6 4 C-6.66 3.01 -7.32 2.02 -8 1 C-2.25 0 -2.25 0 0 0 Z " fill="#615EC3" transform="translate(140,37)"/>
<path d="M0 0 C3.08793255 2.0586217 3.47838607 2.8553312 5 6 C5.66 6.33 6.32 6.66 7 7 C2.545 6.01 2.545 6.01 -2 5 C-1.34 3.35 -0.68 1.7 0 0 Z " fill="#4145AF" transform="translate(90,34)"/>
<path d="M0 0 C0.33 0.66 0.66 1.32 1 2 C2.65 2 4.3 2 6 2 C6.33 2.66 6.66 3.32 7 4 C-0.75 4.125 -0.75 4.125 -3 3 C-3 2.34 -3 1.68 -3 1 C-2.01 0.67 -1.02 0.34 0 0 Z " fill="#17175E" transform="translate(63,150)"/>
<path d="M0 0 C0.66 0.33 1.32 0.66 2 1 C1.25 3.4375 1.25 3.4375 0 6 C-2.125 6.8125 -2.125 6.8125 -4 7 C-3.67 5.68 -3.34 4.36 -3 3 C-2.34 3 -1.68 3 -1 3 C-0.67 2.01 -0.34 1.02 0 0 Z " fill="#3638A5" transform="translate(73,28)"/>
<path d="M0 0 C0.94875 0.04125 1.8975 0.0825 2.875 0.125 C3.205 1.445 3.535 2.765 3.875 4.125 C2.555 4.455 1.235 4.785 -0.125 5.125 C-0.125 4.465 -0.125 3.805 -0.125 3.125 C-1.775 2.795 -3.425 2.465 -5.125 2.125 C-3.125 0.125 -3.125 0.125 0 0 Z " fill="#3E3FAD" transform="translate(91.125,18.875)"/>
<path d="M0 0 C3 3.625 3 3.625 3 7 C1.68 7.33 0.36 7.66 -1 8 C-1.125 2.25 -1.125 2.25 0 0 Z " fill="#8680D5" transform="translate(162,46)"/>
<path d="M0 0 C2.50037734 2.17424117 3.43628586 3.73045798 4 7 C3.01 7.33 2.02 7.66 1 8 C0.26919734 6.02253397 -0.39421747 4.01927511 -1 2 C-0.67 1.34 -0.34 0.68 0 0 Z " fill="#8E89D7" transform="translate(158,39)"/>
<path d="M0 0 C2.31 0.33 4.62 0.66 7 1 C6.34 2.65 5.68 4.3 5 6 C1.125 3.375 1.125 3.375 0 0 Z " fill="#5C59C9" transform="translate(121,18)"/>
<path d="M0 0 C1.485 0.99 1.485 0.99 3 2 C2.34 4.97 1.68 7.94 1 11 C0.67 11 0.34 11 0 11 C0.020625 9.88625 0.04125 8.7725 0.0625 7.625 C0.26380718 4.16784079 0.26380718 4.16784079 -1 2 C-0.67 1.34 -0.34 0.68 0 0 Z " fill="#111261" transform="translate(56,136)"/>
<path d="M0 0 C2.31 0 4.62 0 7 0 C7.33 0.99 7.66 1.98 8 3 C5.69 3 3.38 3 1 3 C0.67 2.01 0.34 1.02 0 0 Z " fill="#26286F" transform="translate(44,112)"/>
<path d="M0 0 C0.33 0 0.66 0 1 0 C1.48828125 2.01822917 1.9765625 4.03645833 2.46484375 6.0546875 C2.94846992 8.0585657 2.94846992 8.0585657 4 10 C0.125 8.125 0.125 8.125 -1 7 C-0.71269945 4.66055264 -0.38063221 2.3260857 0 0 Z " fill="#9697B8" transform="translate(41,104)"/>
<path d="M0 0 C1.98 0.495 1.98 0.495 4 1 C3.34 2.65 2.68 4.3 2 6 C1.01 5.67 0.02 5.34 -1 5 C-0.67 3.35 -0.34 1.7 0 0 Z " fill="#3A3FB7" transform="translate(93,61)"/>
<path d="M0 0 C1.11375 0.556875 1.11375 0.556875 2.25 1.125 C0.25 2.125 0.25 2.125 -2.75 2.125 C-2.75 2.785 -2.75 3.445 -2.75 4.125 C-4.07 3.795 -5.39 3.465 -6.75 3.125 C-6.75 2.465 -6.75 1.805 -6.75 1.125 C-4.02098495 -0.69434337 -3.21400584 -1.02263822 0 0 Z " fill="#7D7DBF" transform="translate(114.75,57.875)"/>
<path d="M0 0 C1.5 1.0625 1.5 1.0625 3 3 C3.1875 6.6875 3.1875 6.6875 3 10 C0.64551835 7.44931155 0.01672076 6.28982642 -0.1875 2.75 C-0.125625 1.8425 -0.06375 0.935 0 0 Z " fill="#615BBC" transform="translate(150,52)"/>
<path d="M0 0 C2 2 2 2 2 6 C0.35 6 -1.3 6 -3 6 C-2.01 4.02 -1.02 2.04 0 0 Z " fill="#2F2F94" transform="translate(151,158)"/>
<path d="M0 0 C2.125 0.9375 2.125 0.9375 4 2 C3.01 2.99 2.02 3.98 1 5 C0.01 4.34 -0.98 3.68 -2 3 C-2 2.34 -2 1.68 -2 1 C-1.34 0.67 -0.68 0.34 0 0 Z " fill="#5051B5" transform="translate(124,89)"/>
<path d="M0 0 C3.16115776 1.36983503 3.9927092 1.9890638 6 5 C4.35 5.33 2.7 5.66 1 6 C0 1.125 0 1.125 0 0 Z " fill="#827ED1" transform="translate(145,27)"/>
<path d="M0 0 C2.25 0.25 2.25 0.25 4 1 C3.67 1.66 3.34 2.32 3 3 C0.67843403 3.40729228 -1.6568787 3.74438677 -4 4 C-2.25 1.9375 -2.25 1.9375 0 0 Z " fill="#8A8BBD" transform="translate(131,57)"/>
</svg>
